<?xml version="1.0" encoding="utf-8"?>
<!-- Generator: Adobe Illustrator 16.0.0, SVG Export Plug-In . SVG Version: 6.00 Build 0)  -->
<!DOCTYPE svg PUBLIC "-//W3C//DTD SVG 1.1//EN" "http://www.w3.org/Graphics/SVG/1.1/DTD/svg11.dtd">
<svg version="1.1" id="Layer_1" xmlns="http://www.w3.org/2000/svg" xmlns:xlink="http://www.w3.org/1999/xlink" x="0px" y="0px"
	 width="27.088px" height="31.444px" viewBox="0 0 27.088 31.444" style="enable-background:new 0 0 27.088 31.444;"
	 xml:space="preserve">
<style type="text/css">
<![CDATA[
	.st0{fill:#FFFFFF;}
]]>
</style>
<circle class="st0" cx="7.519" cy="15.094" r="1.727"/>
<circle class="st0" cx="12.854" cy="16.413" r="2.356"/>
<path class="st0" d="M23.046,12.232c-1.054,0-2.011,0.408-2.731,1.07V8.179H2.293L0,31.444h20.314v-5.615
	c0.721,0.662,1.678,1.07,2.731,1.07c2.228,0,4.042-1.813,4.042-4.041v-6.586C27.088,14.044,25.273,12.232,23.046,12.232z
	 M18.73,29.067H2.566l0.253-2.659h8.422l-8.284-3.434L4.391,9.926h14.34V29.067z M25.121,22.858c0,1.145-0.932,2.076-2.075,2.076
	c-1.146,0-2.075-0.932-2.075-2.076v-6.586c0-1.143,0.93-2.074,2.075-2.074c1.144,0,2.075,0.931,2.075,2.074V22.858z"/>
<path class="st0" d="M20.32,6.578H2.125c0,0-2.49-2.151,0.556-3.055c1.165-4.358,6.005-1.536,5.374-0.46
	c0.986-5.313,5.368-2.427,5.269-0.867c0.265-1.39,4.54-2.286,4.088,1.412C19.943,3.995,20.114,4.493,20.32,6.578z"/>
</svg>
